<?xml version="1.0" standalone="no"?>
<!DOCTYPE svg PUBLIC "-//W3C//DTD SVG 20010904//EN"
 "http://www.w3.org/TR/2001/REC-SVG-20010904/DTD/svg10.dtd">
<svg version="1.0" xmlns="http://www.w3.org/2000/svg"
 width="1920.000000pt" height="1080.000000pt" viewBox="0 0 1920.000000 1080.000000"
 preserveAspectRatio="xMidYMid meet">

<g transform="translate(0.000000,1080.000000) scale(0.100000,-0.100000)"
fill="#000000" stroke="none">
<path d="M0 5400 l0 -5400 9600 0 9600 0 0 5400 0 5400 -9600 0 -9600 0 0
-5400z m9204 3889 c-3 -5 -10 -7 -15 -3 -5 3 -7 10 -3 15 3 5 10 7 15 3 5 -3
7 -10 3 -15z m-2174 -42 c-17 -18 -18 -18 -38 -1 l-20 17 20 17 c19 15 23 15
38 1 16 -15 16 -17 0 -34z m9231 -24 l-16 -21 -22 20 -22 21 21 17 c19 15 23
15 38 1 15 -15 15 -18 1 -38z m2720 34 c-13 -13 -26 -3 -16 12 3 6 11 8 17 5
6 -4 6 -10 -1 -17z m-17577 -18 c-3 -5 -10 -7 -15 -3 -5 3 -7 10 -3 15 3 5 10
7 15 3 5 -3 7 -10 3 -15z m3332 -293 l-21 -22 -26 21 -25 20 25 26 25 25 21
-24 21 -25 -20 -21z m7056 -38 l23 -23 -22 -22 -23 -22 -23 21 -23 21 20 22
c12 13 22 23 23 24 1 1 12 -9 25 -21z m-8088 -619 c-3 -5 -10 -7 -15 -3 -5 3
-7 10 -3 15 3 5 10 7 15 3 5 -3 7 -10 3 -15z m10005 -113 c-2 -2 -159 -72
-349 -154 -190 -83 -390 -171 -444 -196 -55 -26 -107 -45 -115 -43 -20 4 54
38 389 182 457 195 536 227 519 211z m-3652 -182 l-21 -22 -17 22 c-16 19 -16
23 -2 38 14 16 17 16 38 0 l22 -17 -20 -21z m7747 -450 c-18 -18 -20 -18 -37
-1 -18 18 -18 19 -1 38 18 19 18 19 37 0 19 -18 19 -19 1 -37z m-10710 25 c-3
-5 -10 -7 -15 -3 -5 3 -7 10 -3 15 3 5 10 7 15 3 5 -3 7 -10 3 -15z m6080
-160 c-3 -5 -10 -7 -15 -3 -5 3 -7 10 -3 15 3 5 10 7 15 3 5 -3 7 -10 3 -15z
m997 -132 c-1 -12 -15 -9 -19 4 -3 6 1 10 8 8 6 -3 11 -8 11 -12z m-12283
-232 l-21 -22 -22 21 -21 21 20 23 20 22 22 -21 23 -22 -21 -22z m10272 -163
c0 -13 -12 -22 -22 -16 -10 6 -1 24 13 24 5 0 9 -4 9 -8z m-7330 -376 c0 -3
-4 -8 -10 -11 -5 -3 -10 -1 -10 4 0 6 5 11 10 11 6 0 10 -2 10 -4z m12651
-660 c-17 -20 -161 -90 -169 -81 -8 7 4 15 92 62 66 35 97 43 77 19z m59 -256
c0 -5 -5 -10 -11 -10 -5 0 -7 5 -4 10 3 6 8 10 11 10 2 0 4 -4 4 -10z m-7741
-1507 c29 -4 41 -2 41 7 0 9 42 10 178 6 97 -3 221 -5 276 -5 54 1 101 -3 105
-9 4 -6 47 -7 111 -3 58 4 155 3 215 -1 61 -5 169 -10 240 -12 72 -2 152 -9
179 -16 38 -10 51 -10 54 -2 5 15 82 16 82 1 0 -7 14 -8 40 -4 27 5 40 3 40
-5 0 -8 28 -9 100 -4 72 5 100 4 100 -5 0 -6 17 -11 40 -11 22 0 40 -4 40 -9
0 -5 44 -9 98 -9 97 0 219 -17 236 -33 14 -12 93 -11 116 1 13 7 21 7 25 0 3
-6 50 -10 106 -10 59 0 99 -4 99 -10 0 -5 18 -10 40 -10 22 0 40 -4 40 -10 0
-5 20 -10 44 -10 39 0 44 -2 39 -19 -4 -18 2 -21 56 -27 34 -3 61 -11 61 -15
0 -5 9 -9 19 -9 11 0 23 -5 26 -10 4 -6 21 -8 41 -4 22 4 34 2 34 -5 0 -7 31
-11 93 -10 120 1 147 -6 147 -37 0 -23 3 -24 60 -24 38 0 60 -4 60 -11 0 -8
23 -10 80 -5 54 5 80 4 80 -3 0 -6 9 -11 20 -11 12 0 25 -10 32 -26 11 -24 15
-26 60 -20 31 4 48 3 48 -4 0 -5 8 -10 19 -10 10 0 24 -7 31 -15 7 -8 25 -15
41 -15 16 0 29 -4 29 -10 0 -5 18 -10 40 -10 22 0 40 -4 40 -10 0 -5 9 -10 20
-10 11 0 20 -4 20 -10 0 -5 9 -10 20 -10 11 0 20 -4 20 -10 0 -5 14 -10 30
-10 23 0 30 -4 30 -20 0 -11 5 -20 10 -20 6 0 10 5 10 10 0 6 24 10 54 10 46
0 56 -3 61 -21 8 -24 43 -39 91 -39 19 0 34 -4 34 -10 0 -5 9 -10 20 -10 11 0
20 -4 20 -10 0 -6 27 -10 60 -10 33 0 60 -4 60 -10 0 -5 18 -10 40 -10 23 0
40 -5 40 -11 0 -6 -8 -8 -17 -5 -10 4 -5 -4 12 -17 22 -19 46 -26 94 -30 36
-3 67 -10 69 -16 2 -6 21 -11 43 -11 21 0 39 -4 39 -8 0 -8 60 -22 213 -53 27
-5 80 -9 118 -9 60 0 69 -2 69 -18 0 -16 15 -20 98 -31 53 -7 105 -13 115 -14
9 -1 17 -5 17 -9 0 -4 12 -9 28 -9 26 -2 26 -2 2 -6 -94 -15 -230 -49 -472
-119 -65 -19 -120 -34 -123 -34 -3 0 -5 -5 -5 -10 0 -7 6 -7 19 0 25 13 41 13
41 0 0 -5 -10 -10 -22 -10 -42 0 -11 -10 47 -15 32 -3 63 -9 69 -14 6 -4 42
-11 80 -14 84 -8 104 -22 50 -36 -22 -5 -68 -17 -104 -27 l-65 -16 -120 40
c-180 62 -236 68 -370 43 -162 -31 -338 -59 -440 -71 -49 -6 -117 -18 -150
-27 -36 -9 -176 -22 -350 -33 -283 -16 -292 -16 -385 2 -63 13 -120 18 -170
15 -91 -5 -194 12 -405 64 -185 47 -201 46 -365 -6 -116 -38 -206 -58 -349
-80 -109 -16 -87 -20 -516 96 -909 248 -1650 487 -2245 726 -176 71 -276 106
-297 104 -30 -1 -33 1 -33 27 0 16 10 44 23 63 37 55 50 96 44 139 -4 31 -1
42 16 57 11 10 17 12 13 6 -5 -9 1 -11 21 -8 15 3 97 7 181 8 90 2 156 7 160
13 4 6 68 11 157 13 116 2 153 5 161 16 6 8 14 12 17 9 3 -4 86 -8 183 -10
153 -3 184 -1 233 16 50 17 58 17 73 3 9 -8 35 -17 57 -20z m-1394 -63 c-8
-14 8 -13 22 1 8 8 11 6 10 -7 -2 -22 -80 -88 -117 -99 -36 -11 -86 -51 -107
-85 -14 -24 -24 -30 -50 -30 -18 0 -33 -4 -33 -10 0 -17 42 -32 72 -26 24 5
28 3 20 -7 -6 -7 -14 -36 -18 -64 -8 -61 -2 -57 -205 -132 -115 -42 -151 -51
-254 -60 -66 -6 -162 -16 -213 -22 -51 -6 -111 -8 -132 -4 -43 7 -61 3 -475
-130 -225 -72 -457 -146 -532 -169 -20 -7 -23 -4 -23 23 0 16 -5 33 -10 36 -6
4 -8 11 -5 16 4 5 1 9 -5 9 -6 0 -8 5 -5 10 3 6 1 10 -5 10 -6 0 -9 4 -5 9 3
5 1 12 -5 16 -6 4 -8 10 -5 14 2 5 -1 16 -8 25 -10 14 -15 8 -35 -46 -25 -72
-62 -108 -56 -56 3 24 1 29 -12 24 -15 -6 -15 -4 -3 10 12 15 11 16 -11 9 -20
-6 -23 -5 -12 6 16 17 16 53 0 43 -7 -5 -9 -2 -5 9 3 8 0 21 -8 27 -8 6 -11
18 -8 26 3 8 0 14 -6 14 -6 0 -10 3 -9 8 0 4 -1 14 -5 22 -3 8 -8 22 -10 30
-3 8 -6 3 -6 -11 -1 -28 -24 -91 -32 -87 -2 2 -3 2 -3 0 1 -2 -4 -23 -12 -48
-7 -24 -10 -44 -6 -44 4 0 -1 -5 -10 -11 -13 -7 -30 -4 -65 12 -100 47 -194
35 -389 -46 -111 -46 -130 -52 -119 -35 3 6 1 10 -5 10 -6 0 -10 8 -8 18 2 9
-2 16 -9 15 -7 -2 -10 4 -7 12 4 8 1 15 -5 15 -6 0 -11 16 -11 36 0 25 -4 33
-12 29 -7 -4 -2 3 11 14 13 12 37 21 55 21 17 0 44 7 60 15 15 8 37 15 48 15
12 0 30 10 41 23 13 15 21 18 24 10 7 -19 83 -17 83 2 0 11 11 15 40 15 29 0
40 4 40 15 0 10 14 17 40 21 22 4 40 10 40 15 0 5 16 9 35 9 42 0 125 21 125
32 0 4 18 8 40 8 22 0 40 4 40 9 0 5 17 12 37 16 21 4 41 11 44 17 3 5 26 11
50 13 31 2 45 8 47 19 2 10 15 17 35 18 18 1 42 2 54 3 11 0 28 7 38 15 9 8
46 14 88 16 40 2 75 3 80 3 4 1 7 7 7 15 0 17 51 27 113 20 41 -4 47 -2 47 15
0 19 34 31 91 31 16 0 29 5 29 10 0 16 30 12 48 -6 14 -15 17 -15 27 0 7 9 19
16 28 16 8 0 17 4 19 8 4 12 170 52 215 52 21 0 47 7 58 16 13 9 30 12 49 8
17 -4 31 -2 36 6 4 6 25 13 46 15 21 1 46 5 54 8 28 10 85 19 165 28 138 15
175 21 175 28 0 4 34 7 77 8 47 1 79 6 84 14 5 8 50 13 141 16 76 2 134 7 136
13 2 6 20 10 40 11 31 1 46 4 90 18 2 1 0 -3 -3 -9z m35 -257 c0 -13 -4 -23
-10 -23 -5 0 -10 17 -10 38 0 27 3 33 10 22 5 -8 10 -25 10 -37z m-50 -1 c0
-32 -5 -41 -25 -50 -28 -13 -65 -16 -65 -6 0 3 11 19 25 36 14 16 25 36 25 44
0 8 9 14 20 14 17 0 20 -7 20 -38z m-113 -47 c1 -19 -3 -35 -7 -35 -5 0 -16
-3 -26 -7 -15 -5 -16 -2 -10 23 15 59 42 71 43 19z m-2927 -407 c0 -6 -8 -17
-17 -24 -16 -12 -16 -15 -3 -24 11 -7 12 -10 2 -10 -9 0 -11 -7 -7 -20 5 -15
2 -20 -12 -20 -17 -1 -17 -2 2 -17 19 -14 17 -15 -29 -9 -61 8 -67 13 -37 35
20 15 21 19 7 24 -20 8 -21 27 -1 27 13 0 13 3 3 13 -7 8 -22 12 -33 9 -11 -3
-17 -1 -12 3 9 10 119 34 130 28 4 -2 7 -9 7 -15z m-133 -114 c-3 -3 -12 -4
-19 -1 -8 3 -5 6 6 6 11 1 17 -2 13 -5z m9996 -11 c-7 -2 -19 -2 -25 0 -7 3
-2 5 12 5 14 0 19 -2 13 -5z"/>
<path d="M8536 4013 c-6 -14 -5 -15 5 -6 7 7 10 15 7 18 -3 3 -9 -2 -12 -12z"/>
<path d="M13168 3723 c6 -2 18 -2 25 0 6 3 1 5 -13 5 -14 0 -19 -2 -12 -5z"/>
</g>
</svg>
